HIERARCHY
ROOT joint_Root
{
	OFFSET 0.0 0.0 0.0
	CHANNELS 6 Xposition Yposition Zposition Zrotation Xrotation Yrotation 
	JOINT Hips
	{
		OFFSET -0.726466 93.3139 -2.00062
		CHANNELS 6 Xposition Yposition Zposition Zrotation Xrotation Yrotation 
		JOINT Spine
		{
			OFFSET 15.7357 0.0 0.0
			CHANNELS 6 Xposition Yposition Zposition Zrotation Xrotation Yrotation 
			JOINT Chest
			{
				OFFSET 8.98455 -0.406207 0.0
				CHANNELS 6 Xposition Yposition Zposition Zrotation Xrotation Yrotation 
				JOINT Neck
				{
					OFFSET 16.3773 0.0 0.0
					CHANNELS 6 Xposition Yposition Zposition Zrotation Xrotation Yrotation 
					JOINT Head
					{
						OFFSET 6.45672 0.0 0.0
						CHANNELS 6 Xposition Yposition Zposition Zrotation Xrotation Yrotation 
						End Site
						{
							OFFSET 0.0 0.0 0.0
						}
					}
				}
				JOINT Shoulder_L
				{
					OFFSET 12.9942 -0.242716 4.98039
					CHANNELS 6 Xposition Yposition Zposition Zrotation Xrotation Yrotation 
					JOINT UpperArm_L
					{
						OFFSET 5.34809 0.0 0.0
						CHANNELS 6 Xposition Yposition Zposition Zrotation Xrotation Yrotation 
						JOINT LowerArm_L
						{
							OFFSET 24.3286 1.87007e-05 0.0
							CHANNELS 6 Xposition Yposition Zposition Zrotation Xrotation Yrotation 
							JOINT Hand_L
							{
								OFFSET 22.2916 0.0 0.0
								CHANNELS 6 Xposition Yposition Zposition Zrotation Xrotation Yrotation 
								End Site
								{
									OFFSET 0.0 0.0 0.0
								}
							}
						}
					}
				}
				JOINT Shoulder_R
				{
					OFFSET 12.9945 -0.242716 -4.98039
					CHANNELS 6 Xposition Yposition Zposition Zrotation Xrotation Yrotation 
					JOINT UpperArm_R
					{
						OFFSET -5.34813 0.0 0.0
						CHANNELS 6 Xposition Yposition Zposition Zrotation Xrotation Yrotation 
						JOINT LowerArm_R
						{
							OFFSET -24.3289 0.000322201 0.0
							CHANNELS 6 Xposition Yposition Zposition Zrotation Xrotation Yrotation 
							JOINT Hand_R
							{
								OFFSET -22.2915 -0.000108084 0.0
								CHANNELS 6 Xposition Yposition Zposition Zrotation Xrotation Yrotation 
								End Site
								{
									OFFSET 0.0 0.0 0.0
								}
							}
						}
					}
				}
			}
		}
		JOINT UpperLeg_L
		{
			OFFSET -2.19248 -6.46944 0.0
			CHANNELS 6 Xposition Yposition Zposition Zrotation Xrotation Yrotation 
			JOINT LowerLeg_L
			{
				OFFSET 39.0811 0.0 -1.23785e-05
				CHANNELS 6 Xposition Yposition Zposition Zrotation Xrotation Yrotation 
				JOINT Foot_L
				{
					OFFSET 40.9854 0.0 -1.26872e-05
					CHANNELS 6 Xposition Yposition Zposition Zrotation Xrotation Yrotation 
					JOINT Toes_L
					{
						OFFSET 11.7543 0.0 0.0
						CHANNELS 6 Xposition Yposition Zposition Zrotation Xrotation Yrotation 
						End Site
						{
							OFFSET 0.0 0.0 0.0
						}
					}
				}
			}
		}
		JOINT UpperLeg_R
		{
			OFFSET -2.19251 6.46944 0.0
			CHANNELS 6 Xposition Yposition Zposition Zrotation Xrotation Yrotation 
			JOINT LowerLeg_R
			{
				OFFSET -39.0811 -0.00228153 -0.0401928
				CHANNELS 6 Xposition Yposition Zposition Zrotation Xrotation Yrotation 
				JOINT Foot_R
				{
					OFFSET -40.9854 0.0 0.0
					CHANNELS 6 Xposition Yposition Zposition Zrotation Xrotation Yrotation 
					JOINT Toes_R
					{
						OFFSET -11.7543 0.0 0.0
						CHANNELS 6 Xposition Yposition Zposition Zrotation Xrotation Yrotation 
						End Site
						{
							OFFSET 0.0 0.0 0.0
						}
					}
				}
			}
		}
	}
}
MOTION
Frames:	7
Frame Time:	0.0333333
0.000000 0.000000 0.000000 0.000000 0.000000 -0.000000 -1.923740 93.171900 -0.982685 88.929300 -2.365090 -0.438050 15.735700 0.000005 -0.000001 103.889000 87.274800 -104.518000 8.984550 -0.406207 -0.000000 -2.467490 1.364070 -1.228790 16.377300 -0.000001 -0.000001 2.585190 -4.937990 7.134090 6.456720 -0.000001 -0.000000 6.213290 -2.846450 -4.946020 12.994200 -0.242716 4.980390 -89.863800 -0.419196 -71.999800 5.348090 -0.000007 -0.000001 -70.177800 30.636800 -10.033600 24.328600 0.000019 0.000005 4.547650 12.701600 -19.887200 22.291600 -0.000001 0.000005 5.430500 5.467490 -5.276660 12.994500 -0.242716 -4.980390 92.609000 -5.782490 -65.663800 -5.348130 -0.000001 -0.000004 -65.894700 -57.015600 -116.616000 -24.328900 0.000322 -0.000009 0.975648 1.211950 -38.821700 -22.291500 -0.000108 -0.000004 30.768800 5.104180 5.009010 -2.192480 -6.469440 -0.000000 -176.216000 -9.723680 -3.662580 39.081100 -0.000007 -0.000012 -0.054823 0.206335 14.879600 40.985400 -0.000006 -0.000013 -1.067590 4.215150 -61.643800 11.754300 -0.000000 0.000003 -0.000004 -0.000052 -16.579500 -2.192510 6.469440 -0.000001 -179.212000 12.028100 178.790000 -39.081100 -0.002282 -0.040193 -0.011501 0.069723 12.013100 -40.985400 0.000008 0.000006 4.034390 6.571070 -62.021100 -11.754300 -0.000006 -0.000006 -0.006318 -0.073695 -19.572600
0.000000 0.000000 0.000000 0.000000 0.000000 -0.000000 -1.990150 93.174200 -1.033970 88.911500 -2.276750 -0.414129 15.735700 0.000005 -0.000001 103.750000 87.259500 -104.315000 8.984550 -0.406207 -0.000000 -2.435480 1.352630 -1.102030 16.377300 -0.000001 -0.000001 2.707890 -5.143890 7.238800 6.456720 -0.000001 -0.000000 6.345720 -3.100680 -4.713530 12.994200 -0.242716 4.980390 -89.875400 -0.384216 -72.029100 5.348090 -0.000007 -0.000001 -69.908000 30.619400 -10.178900 24.328600 0.000019 0.000005 4.555860 12.570100 -20.109100 22.291600 -0.000001 0.000005 5.313660 5.464780 -5.175040 12.994500 -0.242716 -4.980390 92.578000 -5.692960 -65.587200 -5.348130 -0.000001 -0.000004 -62.804500 -57.424100 -116.017000 -24.328900 0.000322 -0.000009 2.583120 2.561140 -45.263800 -22.291500 -0.000108 -0.000004 30.442500 5.235850 1.800040 -2.192480 -6.469440 -0.000000 -176.154000 -9.648240 -3.694030 39.081100 -0.000007 -0.000012 -0.055137 0.207254 14.897600 40.985400 -0.000006 -0.000013 -1.111770 4.208270 -61.603400 11.754300 -0.000000 0.000003 -0.000005 -0.000065 -16.580100 -2.192510 6.469440 -0.000001 -179.135000 12.012900 178.797000 -39.081100 -0.002282 -0.040193 -0.010590 0.065510 12.000500 -40.985400 0.000008 0.000006 4.141470 6.489670 -62.008500 -11.754300 -0.000006 -0.000006 -0.006334 -0.073836 -19.578400
0.000000 0.000000 0.000000 0.000000 0.000000 -0.000000 -2.051050 93.166500 -1.070960 88.910900 -2.288840 -0.346519 15.735700 0.000005 -0.000001 103.995000 87.218800 -104.502000 8.984550 -0.406207 -0.000000 -2.362730 1.389570 -0.985726 16.377300 -0.000001 -0.000001 2.766970 -5.201160 7.291330 6.456720 -0.000001 -0.000000 6.432280 -3.201060 -4.744250 12.994200 -0.242716 4.980390 -89.880800 -0.367042 -72.012200 5.348090 -0.000007 -0.000001 -69.810200 30.624800 -10.328200 24.328600 0.000019 0.000005 4.605340 12.604300 -20.260800 22.291600 -0.000001 0.000005 5.210210 5.466240 -5.230220 12.994500 -0.242716 -4.980390 92.525200 -5.578380 -65.596900 -5.348130 -0.000001 -0.000004 -59.489400 -58.069500 -115.182000 -24.328900 0.000322 -0.000009 4.747080 3.719720 -51.991700 -22.291500 -0.000108 -0.000004 30.427700 5.348920 -1.350580 -2.192480 -6.469440 -0.000000 -176.096000 -9.626540 -3.689240 39.081100 -0.000007 -0.000012 -0.056259 0.210266 14.979000 40.985400 -0.000006 -0.000013 -1.156540 4.207280 -61.614100 11.754300 -0.000000 0.000003 -0.000004 -0.000058 -16.579800 -2.192510 6.469440 -0.000001 -179.117000 12.011100 178.781000 -39.081100 -0.002282 -0.040193 -0.012126 0.072001 12.119200 -40.985400 0.000008 0.000006 4.135330 6.520210 -62.043500 -11.754300 -0.000006 -0.000006 -0.006010 -0.070924 -19.459600
0.000000 0.000000 0.000000 0.000000 0.000000 -0.000000 -2.098680 93.165100 -1.117200 88.905300 -2.299840 -0.324718 15.735700 0.000005 -0.000001 104.496000 87.181100 -104.952000 8.984550 -0.406207 -0.000000 -2.302110 1.450810 -0.881912 16.377300 -0.000001 -0.000001 2.768450 -5.173540 7.341350 6.456720 -0.000001 -0.000000 6.479380 -3.143510 -4.920580 12.994200 -0.242716 4.980390 -89.881700 -0.364493 -72.018000 5.348090 -0.000007 -0.000001 -69.914700 30.692600 -10.390600 24.328600 0.000019 0.000005 4.550910 12.327200 -20.446500 22.291600 -0.000001 0.000005 5.256390 5.467890 -5.291630 12.994500 -0.242716 -4.980390 92.479100 -5.466280 -65.558100 -5.348130 -0.000001 -0.000004 -57.198400 -58.445400 -115.028000 -24.328900 0.000322 -0.000009 6.800400 4.268860 -58.020300 -22.291500 -0.000108 -0.000004 29.744500 5.484820 -5.955920 -2.192480 -6.469440 -0.000000 -176.065000 -9.600930 -3.717790 39.081100 -0.000007 -0.000012 -0.056017 0.208791 15.018400 40.985400 -0.000006 -0.000013 -1.188260 4.166220 -61.598500 11.754300 -0.000000 0.000003 -0.000005 -0.000069 -16.580200 -2.192510 6.469440 -0.000001 -179.078000 12.106200 178.755000 -39.081100 -0.002282 -0.040193 -0.012598 0.074031 12.146000 -40.985400 0.000008 0.000006 4.101170 6.588990 -62.022500 -11.754300 -0.000006 -0.000006 -0.006210 -0.072728 -19.533200
0.000000 0.000000 0.000000 0.000000 0.000000 -0.000000 -2.133680 93.166100 -1.151250 88.901800 -2.330210 -0.272019 15.735700 0.000005 -0.000001 104.680000 87.133900 -105.098000 8.984550 -0.406207 -0.000000 -2.215670 1.488680 -0.807097 16.377300 -0.000001 -0.000001 2.808000 -5.087270 7.360980 6.456720 -0.000001 -0.000000 6.430470 -2.998110 -5.082850 12.994200 -0.242716 4.980390 -89.881900 -0.363310 -71.988600 5.348090 -0.000007 -0.000001 -70.181700 30.841800 -10.383500 24.328600 0.000019 0.000005 4.546680 12.186000 -20.642600 22.291600 -0.000001 0.000005 5.270960 5.467800 -5.288510 12.994500 -0.242716 -4.980390 92.485600 -5.471990 -65.523800 -5.348130 -0.000001 -0.000004 -56.021500 -58.375500 -115.282000 -24.328900 0.000322 -0.000009 8.336310 4.311670 -62.846000 -22.291500 -0.000108 -0.000004 29.912000 5.589940 -10.740100 -2.192480 -6.469440 -0.000000 -176.029000 -9.623080 -3.685550 39.081100 -0.000007 -0.000012 -0.056140 0.209213 15.020700 40.985400 -0.000006 -0.000013 -1.214720 4.160210 -61.573400 11.754300 -0.000000 0.000003 -0.000004 -0.000059 -16.579800 -2.192510 6.469440 -0.000001 -179.065000 12.084100 178.782000 -39.081100 -0.002282 -0.040193 -0.012777 0.074845 12.148700 -40.985400 0.000008 0.000006 4.078840 6.620750 -61.997000 -11.754300 -0.000006 -0.000006 -0.006171 -0.072383 -19.519100
0.000000 0.000000 0.000000 0.000000 0.000000 -0.000000 -2.138660 93.162000 -1.179220 88.902900 -2.358110 -0.206379 15.735700 0.000005 -0.000001 105.304000 87.078700 -105.695000 8.984550 -0.406207 -0.000000 -2.125380 1.575430 -0.753757 16.377300 -0.000001 -0.000001 2.819900 -5.001570 7.452350 6.456720 -0.000001 -0.000000 6.442380 -2.891860 -5.300750 12.994200 -0.242716 4.980390 -89.879700 -0.371111 -72.036400 5.348090 -0.000007 -0.000001 -70.588500 31.166000 -10.378200 24.328600 0.000019 0.000005 4.540220 12.123200 -20.711800 22.291600 -0.000001 0.000005 5.330580 5.472500 -5.463750 12.994500 -0.242716 -4.980390 92.515400 -5.516540 -65.440600 -5.348130 -0.000001 -0.000004 -55.040600 -58.265700 -115.232000 -24.328900 0.000322 -0.000009 7.108720 3.388280 -64.647700 -22.291500 -0.000108 -0.000004 31.851800 5.649580 -14.883300 -2.192480 -6.469440 -0.000000 -176.015000 -9.643830 -3.657660 39.081100 -0.000007 -0.000012 -0.056248 0.208825 15.075000 40.985400 -0.000006 -0.000013 -1.216940 4.161510 -61.586900 11.754300 -0.000000 0.000003 -0.000003 -0.000048 -16.579400 -2.192510 6.469440 -0.000001 -179.074000 12.064400 178.786000 -39.081100 -0.002282 -0.040193 -0.013514 0.077729 12.230700 -40.985400 0.000008 0.000006 4.066590 6.623000 -62.014300 -11.754300 -0.000006 -0.000006 -0.006105 -0.071783 -19.494600
0.000000 0.000000 0.000000 0.000000 0.000000 -0.000000 -2.125100 93.163100 -1.210480 88.882500 -2.373610 -0.170343 15.735700 0.000005 -0.000001 105.796000 87.043600 -106.195000 8.984550 -0.406207 -0.000000 -2.070910 1.643350 -0.768102 16.377300 -0.000001 -0.000001 2.902620 -4.938690 7.608230 6.456720 -0.000001 -0.000000 6.412540 -2.779530 -5.326580 12.994200 -0.242716 4.980390 -89.857500 -0.439840 -72.047400 5.348090 -0.000007 -0.000001 -71.148800 31.557600 -10.288000 24.328600 0.000019 0.000005 4.521370 11.955000 -20.894100 22.291600 -0.000001 0.000005 5.092010 5.469970 -5.369230 12.994500 -0.242716 -4.980390 92.582500 -5.678140 -65.493100 -5.348130 -0.000001 -0.000004 -54.979100 -58.031700 -115.115000 -24.328900 0.000322 -0.000009 6.418450 3.273590 -63.093300 -22.291500 -0.000108 -0.000004 34.465400 5.664640 -16.621000 -2.192480 -6.469440 -0.000000 -176.000000 -9.643070 -3.666990 39.081100 -0.000007 -0.000012 -0.057207 0.211750 15.118100 40.985400 -0.000006 -0.000013 -1.212220 4.126620 -61.584000 11.754300 -0.000000 0.000003 -0.000006 -0.000090 -16.581100 -2.192510 6.469440 -0.000001 -179.064000 12.050700 178.811000 -39.081100 -0.002282 -0.040193 -0.012731 0.074160 12.223500 -40.985400 0.000008 0.000006 4.087590 6.630160 -61.996900 -11.754300 -0.000006 -0.000006 -0.006298 -0.073517 -19.565400
